<?xml version="1.0" standalone="no"?><!-- Generator: Gravit.io --><svg xmlns="http://www.w3.org/2000/svg" xmlns:xlink="http://www.w3.org/1999/xlink" style="isolation:isolate" viewBox="0 0 135 72" width="135" height="72"><defs><clipPath id="_clipPath_RABbZDEDuIGRTuTQgrlfmp7A9nQNDAIx"><rect width="135" height="72"/></clipPath></defs><g clip-path="url(#_clipPath_RABbZDEDuIGRTuTQgrlfmp7A9nQNDAIx)"><rect x="0" y="0" width="14.418" height="14.418" transform="matrix(1,0,0,1,0,0)" fill="rgb(178,0,126)"/><rect x="0" y="19.006" width="14.418" height="14.418" transform="matrix(1,0,0,1,0,0)" fill="rgb(147,147,147)"/><rect x="0" y="37.357" width="14.418" height="14.418" transform="matrix(1,0,0,1,0,0)" fill="rgb(246,102,210)"/><rect x="0" y="56.363" width="14.418" height="14.418" transform="matrix(1,0,0,1,0,0)" fill="rgb(43,185,18)"/><path d=" M 18.534 14.801 L 18.534 1.087 L 18.534 1.087 Q 18.534 0.625 18.977 0.625 L 18.977 0.625 L 24.56 0.625 L 24.56 0.625 Q 25.553 0.625 26.389 1.013 L 26.389 1.013 L 26.389 1.013 Q 27.224 1.401 27.829 2.05 L 27.829 2.05 L 27.829 2.05 Q 28.434 2.699 28.768 3.54 L 28.768 3.54 L 28.768 3.54 Q 29.102 4.38 29.102 5.294 L 29.102 5.294 L 29.102 5.294 Q 29.102 6.189 28.772 7.02 L 28.772 7.02 L 28.772 7.02 Q 28.443 7.85 27.847 8.494 L 27.847 8.494 L 27.847 8.494 Q 27.252 9.138 26.425 9.527 L 26.425 9.527 L 26.425 9.527 Q 25.598 9.915 24.614 9.915 L 24.614 9.915 L 21.375 9.915 L 21.375 14.801 L 21.375 14.801 Q 21.375 15.223 20.934 15.223 L 20.934 15.223 L 18.965 15.223 L 18.965 15.223 Q 18.534 15.223 18.534 14.801 L 18.534 14.801 Z  M 26.232 5.28 L 26.232 5.28 L 26.232 5.28 Q 26.232 4.876 26.074 4.486 L 26.074 4.486 L 26.074 4.486 Q 25.916 4.097 25.641 3.797 L 25.641 3.797 L 25.641 3.797 Q 25.365 3.496 24.981 3.309 L 24.981 3.309 L 24.981 3.309 Q 24.596 3.122 24.143 3.122 L 24.143 3.122 L 21.375 3.122 L 21.375 7.438 L 24.143 7.438 L 24.143 7.438 Q 24.587 7.438 24.971 7.26 L 24.971 7.26 L 24.971 7.26 Q 25.355 7.083 25.636 6.782 L 25.636 6.782 L 25.636 6.782 Q 25.916 6.482 26.074 6.093 L 26.074 6.093 L 26.074 6.093 Q 26.232 5.703 26.232 5.28 Z " fill-rule="evenodd" fill="rgb(255,255,255)"/><path d=" M 30.94 7.939 L 30.94 7.939 L 30.94 7.939 Q 30.94 6.907 31.206 5.943 L 31.206 5.943 L 31.206 5.943 Q 31.471 4.98 31.963 4.144 L 31.963 4.144 L 31.963 4.144 Q 32.454 3.309 33.138 2.62 L 33.138 2.62 L 33.138 2.62 Q 33.821 1.932 34.656 1.446 L 34.656 1.446 L 34.656 1.446 Q 35.492 0.959 36.451 0.689 L 36.451 0.689 L 36.451 0.689 Q 37.409 0.418 38.451 0.418 L 38.451 0.418 L 38.451 0.418 Q 39.483 0.418 40.442 0.689 L 40.442 0.689 L 40.442 0.689 Q 41.4 0.959 42.236 1.446 L 42.236 1.446 L 42.236 1.446 Q 43.072 1.932 43.76 2.62 L 43.76 2.62 L 43.76 2.62 Q 44.448 3.309 44.934 4.144 L 44.934 4.144 L 44.934 4.144 Q 45.421 4.98 45.691 5.943 L 45.691 5.943 L 45.691 5.943 Q 45.962 6.907 45.962 7.949 L 45.962 7.949 L 45.962 7.949 Q 45.962 8.991 45.691 9.944 L 45.691 9.944 L 45.691 9.944 Q 45.421 10.898 44.934 11.734 L 44.934 11.734 L 44.934 11.734 Q 44.448 12.569 43.76 13.252 L 43.76 13.252 L 43.76 13.252 Q 43.072 13.936 42.236 14.422 L 42.236 14.422 L 42.236 14.422 Q 41.4 14.909 40.442 15.174 L 40.442 15.174 L 40.442 15.174 Q 39.483 15.44 38.441 15.44 L 38.441 15.44 L 38.441 15.44 Q 37.399 15.44 36.441 15.174 L 36.441 15.174 L 36.441 15.174 Q 35.482 14.909 34.647 14.417 L 34.647 14.417 L 34.647 14.417 Q 33.811 13.926 33.128 13.243 L 33.128 13.243 L 33.128 13.243 Q 32.445 12.559 31.958 11.729 L 31.958 11.729 L 31.958 11.729 Q 31.471 10.898 31.206 9.939 L 31.206 9.939 L 31.206 9.939 Q 30.94 8.981 30.94 7.939 Z  M 33.782 7.919 L 33.782 7.919 L 33.782 7.919 Q 33.782 8.912 34.14 9.777 L 34.14 9.777 L 34.14 9.777 Q 34.499 10.642 35.123 11.281 L 35.123 11.281 L 35.123 11.281 Q 35.748 11.92 36.598 12.294 L 36.598 12.294 L 36.598 12.294 Q 37.448 12.667 38.441 12.667 L 38.441 12.667 L 38.441 12.667 Q 39.424 12.667 40.275 12.294 L 40.275 12.294 L 40.275 12.294 Q 41.125 11.92 41.754 11.281 L 41.754 11.281 L 41.754 11.281 Q 42.383 10.642 42.742 9.777 L 42.742 9.777 L 42.742 9.777 Q 43.101 8.912 43.101 7.919 L 43.101 7.919 L 43.101 7.919 Q 43.101 6.936 42.742 6.071 L 42.742 6.071 L 42.742 6.071 Q 42.383 5.206 41.754 4.562 L 41.754 4.562 L 41.754 4.562 Q 41.125 3.918 40.275 3.545 L 40.275 3.545 L 40.275 3.545 Q 39.424 3.171 38.441 3.171 L 38.441 3.171 L 38.441 3.171 Q 37.448 3.171 36.598 3.545 L 36.598 3.545 L 36.598 3.545 Q 35.748 3.918 35.123 4.562 L 35.123 4.562 L 35.123 4.562 Q 34.499 5.206 34.14 6.071 L 34.14 6.071 L 34.14 6.071 Q 33.782 6.936 33.782 7.919 Z " fill-rule="evenodd" fill="rgb(255,255,255)"/><path d=" M 56.844 4.518 L 56.844 4.518 L 56.844 4.518 Q 56.717 4.518 56.608 4.454 L 56.608 4.454 L 56.608 4.454 Q 56.5 4.39 56.363 4.282 L 56.363 4.282 L 56.343 4.272 L 56.343 4.272 Q 56.156 4.085 55.861 3.859 L 55.861 3.859 L 55.861 3.859 Q 55.566 3.633 55.203 3.436 L 55.203 3.436 L 55.203 3.436 Q 54.839 3.24 54.421 3.102 L 54.421 3.102 L 54.421 3.102 Q 54.003 2.965 53.571 2.965 L 53.571 2.965 L 53.571 2.965 Q 53.02 2.965 52.597 3.087 L 52.597 3.087 L 52.597 3.087 Q 52.175 3.21 51.89 3.422 L 51.89 3.422 L 51.89 3.422 Q 51.605 3.633 51.457 3.918 L 51.457 3.918 L 51.457 3.918 Q 51.31 4.203 51.31 4.528 L 51.31 4.528 L 51.31 4.528 Q 51.31 4.882 51.531 5.147 L 51.531 5.147 L 51.531 5.147 Q 51.752 5.412 52.131 5.619 L 52.131 5.619 L 52.131 5.619 Q 52.509 5.825 53.001 5.997 L 53.001 5.997 L 53.001 5.997 Q 53.492 6.169 54.033 6.336 L 54.033 6.336 L 54.033 6.336 Q 54.652 6.523 55.262 6.74 L 55.262 6.74 L 55.262 6.74 Q 55.871 6.956 56.427 7.226 L 56.427 7.226 L 56.427 7.226 Q 56.982 7.496 57.464 7.826 L 57.464 7.826 L 57.464 7.826 Q 57.945 8.155 58.294 8.583 L 58.294 8.583 L 58.294 8.583 Q 58.643 9.01 58.845 9.536 L 58.845 9.536 L 58.845 9.536 Q 59.046 10.062 59.046 10.721 L 59.046 10.721 L 59.046 10.721 Q 59.046 11.793 58.614 12.658 L 58.614 12.658 L 58.614 12.658 Q 58.181 13.523 57.419 14.137 L 57.419 14.137 L 57.419 14.137 Q 56.658 14.752 55.63 15.081 L 55.63 15.081 L 55.63 15.081 Q 54.603 15.41 53.423 15.41 L 53.423 15.41 L 53.423 15.41 Q 52.666 15.41 51.919 15.233 L 51.919 15.233 L 51.919 15.233 Q 51.172 15.056 50.484 14.732 L 50.484 14.732 L 50.484 14.732 Q 49.796 14.407 49.181 13.95 L 49.181 13.95 L 49.181 13.95 Q 48.567 13.493 48.085 12.923 L 48.085 12.923 L 48.085 12.933 L 48.066 12.894 L 48.066 12.894 Q 47.849 12.648 47.849 12.441 L 47.849 12.441 L 47.849 12.441 Q 47.849 12.333 47.908 12.235 L 47.908 12.235 L 47.908 12.235 Q 47.967 12.137 48.085 12.019 L 48.085 12.019 L 48.41 11.694 L 48.41 11.694 Q 48.557 11.566 48.724 11.409 L 48.724 11.409 L 48.724 11.409 Q 48.891 11.252 49.058 11.124 L 49.058 11.124 L 49.058 11.124 Q 49.226 10.996 49.368 10.908 L 49.368 10.908 L 49.368 10.908 Q 49.511 10.819 49.599 10.819 L 49.599 10.819 L 49.599 10.819 Q 49.737 10.819 49.855 10.908 L 49.855 10.908 L 49.855 10.908 Q 49.973 10.996 50.051 11.075 L 50.051 11.075 L 50.091 11.114 L 50.081 11.114 L 50.081 11.114 Q 50.425 11.439 50.853 11.734 L 50.853 11.734 L 50.853 11.734 Q 51.28 12.028 51.732 12.259 L 51.732 12.259 L 51.732 12.259 Q 52.185 12.49 52.632 12.623 L 52.632 12.623 L 52.632 12.623 Q 53.079 12.756 53.472 12.756 L 53.472 12.756 L 53.472 12.756 Q 54.013 12.756 54.485 12.618 L 54.485 12.618 L 54.485 12.618 Q 54.957 12.481 55.301 12.23 L 55.301 12.23 L 55.301 12.23 Q 55.645 11.979 55.842 11.625 L 55.842 11.625 L 55.842 11.625 Q 56.038 11.271 56.038 10.839 L 56.038 10.839 L 56.038 10.839 Q 56.038 10.406 55.783 10.097 L 55.783 10.097 L 55.783 10.097 Q 55.527 9.787 55.114 9.556 L 55.114 9.556 L 55.114 9.556 Q 54.701 9.325 54.185 9.158 L 54.185 9.158 L 54.185 9.158 Q 53.669 8.991 53.148 8.843 L 53.148 8.843 L 53.148 8.843 Q 51.949 8.48 51.049 8.057 L 51.049 8.057 L 51.049 8.057 Q 50.15 7.634 49.55 7.108 L 49.55 7.108 L 49.55 7.108 Q 48.95 6.582 48.65 5.928 L 48.65 5.928 L 48.65 5.928 Q 48.351 5.275 48.351 4.459 L 48.351 4.459 L 48.351 4.459 Q 48.351 3.545 48.719 2.793 L 48.719 2.793 L 48.719 2.793 Q 49.088 2.04 49.766 1.505 L 49.766 1.505 L 49.766 1.505 Q 50.445 0.969 51.398 0.669 L 51.398 0.669 L 51.398 0.669 Q 52.352 0.369 53.531 0.369 L 53.531 0.369 L 53.531 0.369 Q 54.426 0.369 55.35 0.649 L 55.35 0.649 L 55.35 0.649 Q 56.274 0.93 57.061 1.421 L 57.061 1.421 L 57.061 1.421 Q 57.297 1.569 57.542 1.755 L 57.542 1.755 L 57.542 1.755 Q 57.788 1.942 57.995 2.134 L 57.995 2.134 L 57.995 2.134 Q 58.201 2.326 58.334 2.507 L 58.334 2.507 L 58.334 2.507 Q 58.466 2.689 58.466 2.817 L 58.466 2.817 L 58.466 2.817 Q 58.466 2.935 58.407 3.058 L 58.407 3.058 L 58.407 3.058 Q 58.348 3.181 58.26 3.279 L 58.26 3.279 L 57.965 3.594 L 57.965 3.584 L 57.965 3.584 Q 57.818 3.741 57.66 3.908 L 57.66 3.908 L 57.66 3.908 Q 57.503 4.075 57.346 4.208 L 57.346 4.208 L 57.346 4.208 Q 57.188 4.341 57.061 4.429 L 57.061 4.429 L 57.061 4.429 Q 56.933 4.518 56.844 4.518 Z " fill="rgb(255,255,255)"/><path d=" M 61.534 14.791 L 61.534 1.057 L 61.534 1.057 Q 61.534 0.88 61.641 0.753 L 61.641 0.753 L 61.641 0.753 Q 61.749 0.625 61.965 0.625 L 61.965 0.625 L 63.914 0.625 L 63.914 0.625 Q 64.081 0.625 64.228 0.743 L 64.228 0.743 L 64.228 0.743 Q 64.375 0.861 64.375 1.057 L 64.375 1.057 L 64.375 14.791 L 64.375 14.791 Q 64.375 15.223 63.914 15.223 L 63.914 15.223 L 61.965 15.223 L 61.965 15.223 Q 61.534 15.223 61.534 14.791 L 61.534 14.791 Z " fill="rgb(255,255,255)"/><path d=" M 66.636 2.778 L 66.636 1.057 L 66.636 1.057 Q 66.636 0.861 66.764 0.743 L 66.764 0.743 L 66.764 0.743 Q 66.891 0.625 67.088 0.625 L 67.088 0.625 L 77.43 0.625 L 77.43 0.625 Q 77.607 0.625 77.749 0.733 L 77.749 0.733 L 77.749 0.733 Q 77.892 0.841 77.912 1.057 L 77.912 1.057 L 77.912 2.778 L 77.912 2.778 Q 77.912 2.974 77.789 3.122 L 77.789 3.122 L 77.789 3.122 Q 77.666 3.269 77.43 3.269 L 77.43 3.269 L 73.694 3.269 L 73.694 14.771 L 73.694 14.771 Q 73.694 14.948 73.571 15.086 L 73.571 15.086 L 73.571 15.086 Q 73.448 15.223 73.232 15.223 L 73.232 15.223 L 71.295 15.223 L 71.295 15.223 Q 71.119 15.223 70.976 15.096 L 70.976 15.096 L 70.976 15.096 Q 70.833 14.968 70.833 14.771 L 70.833 14.771 L 70.833 3.269 L 67.088 3.269 L 67.088 3.269 Q 66.891 3.269 66.764 3.146 L 66.764 3.146 L 66.764 3.146 Q 66.636 3.024 66.636 2.778 L 66.636 2.778 Z " fill="rgb(255,255,255)"/><path d=" M 80.222 14.791 L 80.222 1.057 L 80.222 1.057 Q 80.222 0.88 80.33 0.753 L 80.33 0.753 L 80.33 0.753 Q 80.437 0.625 80.653 0.625 L 80.653 0.625 L 82.602 0.625 L 82.602 0.625 Q 82.769 0.625 82.916 0.743 L 82.916 0.743 L 82.916 0.743 Q 83.063 0.861 83.063 1.057 L 83.063 1.057 L 83.063 14.791 L 83.063 14.791 Q 83.063 15.223 82.602 15.223 L 82.602 15.223 L 80.653 15.223 L 80.653 15.223 Q 80.222 15.223 80.222 14.791 L 80.222 14.791 Z " fill="rgb(255,255,255)"/><path d=" M 90.593 14.938 L 90.593 14.938 L 90.593 14.938 Q 90.485 14.732 90.397 14.521 L 90.397 14.521 L 90.397 14.521 Q 90.308 14.309 90.22 14.083 L 90.22 14.083 L 85.058 1.156 L 85.058 1.156 Q 85.058 1.126 85.044 1.072 L 85.044 1.072 L 85.044 1.072 Q 85.029 1.018 85.029 0.939 L 85.029 0.939 L 85.029 0.939 Q 85.029 0.625 85.432 0.625 L 85.432 0.625 L 87.536 0.625 L 87.536 0.625 Q 87.909 0.625 88.047 0.998 L 88.047 0.998 L 88.047 0.998 Q 88.263 1.618 88.573 2.448 L 88.573 2.448 L 88.573 2.448 Q 88.883 3.279 89.232 4.208 L 89.232 4.208 L 89.232 4.208 Q 89.581 5.137 89.949 6.11 L 89.949 6.11 L 89.949 6.11 Q 90.318 7.084 90.667 7.998 L 90.667 7.998 L 90.667 7.998 Q 91.016 8.912 91.316 9.713 L 91.316 9.713 L 91.316 9.713 Q 91.616 10.515 91.822 11.085 L 91.822 11.085 L 91.822 11.085 Q 92.038 10.515 92.333 9.713 L 92.333 9.713 L 92.333 9.713 Q 92.628 8.912 92.967 7.998 L 92.967 7.998 L 92.967 7.998 Q 93.306 7.084 93.67 6.11 L 93.67 6.11 L 93.67 6.11 Q 94.034 5.137 94.378 4.208 L 94.378 4.208 L 94.378 4.208 Q 94.722 3.279 95.032 2.448 L 95.032 2.448 L 95.032 2.448 Q 95.341 1.618 95.567 0.998 L 95.567 0.998 L 95.567 0.998 Q 95.705 0.625 96.098 0.625 L 96.098 0.625 L 98.163 0.625 L 98.163 0.625 Q 98.605 0.625 98.605 0.949 L 98.605 0.949 L 98.605 0.949 Q 98.605 1.018 98.59 1.077 L 98.59 1.077 L 98.59 1.077 Q 98.576 1.136 98.576 1.156 L 98.576 1.156 L 93.424 14.083 L 93.424 14.083 Q 93.346 14.28 93.267 14.481 L 93.267 14.481 L 93.267 14.481 Q 93.188 14.683 93.09 14.87 L 93.09 14.87 L 93.09 14.87 Q 92.952 15.125 92.726 15.174 L 92.726 15.174 L 92.726 15.174 Q 92.5 15.223 92.186 15.223 L 92.186 15.223 L 91.055 15.223 L 91.055 15.223 Q 90.829 15.223 90.736 15.135 L 90.736 15.135 L 90.736 15.135 Q 90.642 15.046 90.593 14.938 Z " fill="rgb(255,255,255)"/><path d=" M 100.561 14.811 L 100.561 1.097 L 100.561 1.097 Q 100.561 0.625 100.994 0.625 L 100.994 0.625 L 110.471 0.625 L 110.471 0.625 Q 110.726 0.625 110.835 0.768 L 110.835 0.768 L 110.835 0.768 Q 110.943 0.911 110.943 1.128 L 110.943 1.128 L 110.943 2.865 L 110.943 2.865 Q 110.943 3.042 110.82 3.18 L 110.82 3.18 L 110.82 3.18 Q 110.697 3.318 110.451 3.318 L 110.451 3.318 L 103.461 3.318 L 103.461 6.297 L 108.849 6.297 L 108.849 6.297 Q 109.045 6.277 109.163 6.381 L 109.163 6.381 L 109.163 6.381 Q 109.281 6.484 109.281 6.73 L 109.281 6.73 L 109.281 8.509 L 109.281 8.509 Q 109.281 8.686 109.183 8.824 L 109.183 8.824 L 109.183 8.824 Q 109.085 8.961 108.868 8.961 L 108.868 8.961 L 103.461 8.961 L 103.461 12.53 L 110.707 12.53 L 110.707 12.53 Q 110.982 12.53 111.07 12.648 L 111.07 12.648 L 111.07 12.648 Q 111.159 12.767 111.159 13.013 L 111.159 13.013 L 111.159 14.809 L 111.159 14.809 Q 111.159 15.223 110.726 15.223 L 110.726 15.223 L 100.994 15.223 L 100.994 15.223 Q 100.817 15.223 100.689 15.125 L 100.689 15.125 L 100.689 15.125 Q 100.561 15.027 100.561 14.811 L 100.561 14.811 Z " fill="rgb(255,255,255)"/><path d=" M 18.642 71.341 L 18.642 57.608 L 18.642 57.608 Q 18.642 57.421 18.755 57.293 L 18.755 57.293 L 18.755 57.293 Q 18.868 57.165 19.075 57.165 L 19.075 57.165 L 21.336 57.165 L 21.336 57.165 Q 21.474 57.165 21.596 57.229 L 21.596 57.229 L 21.596 57.229 Q 21.719 57.293 21.818 57.431 L 21.818 57.431 L 21.818 57.431 Q 23.499 59.83 25.15 62.194 L 25.15 62.194 L 25.15 62.194 Q 26.802 64.558 28.483 66.957 L 28.483 66.957 L 28.483 57.539 L 28.483 57.539 Q 28.512 57.362 28.63 57.264 L 28.63 57.264 L 28.63 57.264 Q 28.748 57.165 28.915 57.165 L 28.915 57.165 L 30.813 57.165 L 30.813 57.165 Q 31.009 57.165 31.152 57.283 L 31.152 57.283 L 31.152 57.283 Q 31.294 57.401 31.294 57.598 L 31.294 57.598 L 31.294 71.361 L 31.294 71.361 Q 31.294 71.764 30.832 71.764 L 30.832 71.764 L 28.699 71.764 L 28.699 71.764 Q 28.483 71.764 28.296 71.499 L 28.296 71.499 L 28.296 71.499 Q 26.566 68.992 24.85 66.49 L 24.85 66.49 L 24.85 66.49 Q 23.135 63.988 21.415 61.471 L 21.415 61.471 L 21.415 71.332 L 21.415 71.332 Q 21.415 71.548 21.311 71.656 L 21.311 71.656 L 21.311 71.656 Q 21.208 71.764 20.962 71.764 L 20.962 71.764 L 19.075 71.764 L 19.075 71.764 Q 18.849 71.764 18.745 71.651 L 18.745 71.651 L 18.745 71.651 Q 18.642 71.538 18.642 71.341 L 18.642 71.341 Z " fill="rgb(255,255,255)"/><path d=" M 37.203 57.598 L 37.203 65.836 L 37.203 65.836 Q 37.203 66.662 37.439 67.321 L 37.439 67.321 L 37.439 67.321 Q 37.674 67.979 38.102 68.436 L 38.102 68.436 L 38.102 68.436 Q 38.53 68.894 39.125 69.134 L 39.125 69.134 L 39.125 69.134 Q 39.719 69.375 40.447 69.375 L 40.447 69.375 L 40.447 69.375 Q 41.214 69.375 41.823 69.12 L 41.823 69.12 L 41.823 69.12 Q 42.433 68.864 42.85 68.397 L 42.85 68.397 L 42.85 68.397 Q 43.268 67.93 43.489 67.276 L 43.489 67.276 L 43.489 67.276 Q 43.711 66.623 43.711 65.836 L 43.711 65.836 L 43.711 57.598 L 43.711 57.598 Q 43.711 57.421 43.838 57.293 L 43.838 57.293 L 43.838 57.293 Q 43.965 57.165 44.161 57.165 L 44.161 57.165 L 46.062 57.165 L 46.062 57.165 Q 46.268 57.165 46.41 57.293 L 46.41 57.293 L 46.41 57.293 Q 46.552 57.421 46.552 57.598 L 46.552 57.598 L 46.552 65.944 L 46.552 65.944 Q 46.552 67.468 46.06 68.603 L 46.06 68.603 L 46.06 68.603 Q 45.569 69.739 44.734 70.496 L 44.734 70.496 L 44.734 70.496 Q 43.899 71.253 42.789 71.626 L 42.789 71.626 L 42.789 71.626 Q 41.68 72 40.442 72 L 40.442 72 L 40.442 72 Q 39.204 72 38.094 71.602 L 38.094 71.602 L 38.094 71.602 Q 36.984 71.204 36.149 70.437 L 36.149 70.437 L 36.149 70.437 Q 35.314 69.67 34.823 68.54 L 34.823 68.54 L 34.823 68.54 Q 34.332 67.409 34.332 65.944 L 34.332 65.944 L 34.332 57.598 L 34.332 57.598 Q 34.332 57.441 34.445 57.303 L 34.445 57.303 L 34.445 57.303 Q 34.558 57.165 34.735 57.165 L 34.735 57.165 L 36.741 57.165 L 36.741 57.165 Q 36.888 57.165 37.045 57.293 L 37.045 57.293 L 37.045 57.293 Q 37.203 57.421 37.203 57.598 L 37.203 57.598 Z " fill="rgb(255,255,255)"/><path d=" M 48.547 59.318 L 48.547 57.598 L 48.547 57.598 Q 48.547 57.401 48.675 57.283 L 48.675 57.283 L 48.675 57.283 Q 48.803 57.165 48.999 57.165 L 48.999 57.165 L 59.341 57.165 L 59.341 57.165 Q 59.518 57.165 59.661 57.274 L 59.661 57.274 L 59.661 57.274 Q 59.803 57.382 59.823 57.598 L 59.823 57.598 L 59.823 59.318 L 59.823 59.318 Q 59.823 59.515 59.7 59.662 L 59.7 59.662 L 59.7 59.662 Q 59.577 59.81 59.341 59.81 L 59.341 59.81 L 55.606 59.81 L 55.606 71.312 L 55.606 71.312 Q 55.606 71.489 55.483 71.626 L 55.483 71.626 L 55.483 71.626 Q 55.36 71.764 55.144 71.764 L 55.144 71.764 L 53.207 71.764 L 53.207 71.764 Q 53.03 71.764 52.887 71.636 L 52.887 71.636 L 52.887 71.636 Q 52.745 71.508 52.745 71.312 L 52.745 71.312 L 52.745 59.81 L 48.999 59.81 L 48.999 59.81 Q 48.803 59.81 48.675 59.687 L 48.675 59.687 L 48.675 59.687 Q 48.547 59.564 48.547 59.318 L 48.547 59.318 Z " fill="rgb(255,255,255)"/><path d=" M 62.123 71.341 L 62.123 57.628 L 62.123 57.628 Q 62.123 57.165 62.556 57.165 L 62.556 57.165 L 68.572 57.165 L 68.572 57.165 Q 69.565 57.165 70.43 57.539 L 70.43 57.539 L 70.43 57.539 Q 71.295 57.913 71.939 58.552 L 71.939 58.552 L 71.939 58.552 Q 72.583 59.191 72.952 60.056 L 72.952 60.056 L 72.952 60.056 Q 73.321 60.921 73.321 61.894 L 73.321 61.894 L 73.321 61.894 Q 73.321 62.572 73.134 63.192 L 73.134 63.192 L 73.134 63.192 Q 72.947 63.811 72.613 64.342 L 72.613 64.342 L 72.613 64.342 Q 72.279 64.873 71.816 65.3 L 71.816 65.3 L 71.816 65.3 Q 71.354 65.728 70.794 66.023 L 70.794 66.023 L 73.35 71.066 L 73.35 71.066 Q 73.37 71.164 73.419 71.263 L 73.419 71.263 L 73.419 71.263 Q 73.468 71.361 73.468 71.469 L 73.468 71.469 L 73.468 71.469 Q 73.468 71.764 73.124 71.764 L 73.124 71.764 L 70.843 71.764 L 70.843 71.764 Q 70.489 71.764 70.371 71.4 L 70.371 71.4 L 67.992 66.682 L 67.992 66.682 Q 67.835 66.682 67.653 66.687 L 67.653 66.687 L 67.653 66.687 Q 67.471 66.691 67.152 66.691 L 67.152 66.691 L 67.152 66.691 Q 66.832 66.691 66.316 66.691 L 66.316 66.691 L 66.316 66.691 Q 65.8 66.691 64.984 66.691 L 64.984 66.691 L 64.984 71.341 L 64.984 71.341 Q 64.984 71.764 64.532 71.764 L 64.532 71.764 L 62.556 71.764 L 62.556 71.764 Q 62.359 71.764 62.241 71.661 L 62.241 71.661 L 62.241 71.661 Q 62.123 71.558 62.123 71.341 L 62.123 71.341 Z  M 70.411 61.909 L 70.411 61.909 L 70.411 61.909 Q 70.411 61.487 70.253 61.09 L 70.253 61.09 L 70.253 61.09 Q 70.096 60.692 69.811 60.379 L 69.811 60.379 L 69.811 60.379 Q 69.526 60.065 69.133 59.868 L 69.133 59.868 L 69.133 59.868 Q 68.739 59.672 68.277 59.643 L 68.277 59.643 L 68.277 59.643 Q 67.933 59.633 67.604 59.628 L 67.604 59.628 L 67.604 59.628 Q 67.275 59.623 66.921 59.623 L 66.921 59.623 L 64.984 59.623 L 64.984 64.185 L 67.579 64.185 L 67.579 64.185 Q 67.776 64.185 67.948 64.185 L 67.948 64.185 L 67.948 64.185 Q 68.12 64.185 68.317 64.165 L 68.317 64.165 L 68.317 64.165 Q 68.779 64.136 69.167 63.949 L 69.167 63.949 L 69.167 63.949 Q 69.555 63.763 69.831 63.454 L 69.831 63.454 L 69.831 63.454 Q 70.106 63.145 70.258 62.747 L 70.258 62.747 L 70.258 62.747 Q 70.411 62.35 70.411 61.909 Z " fill-rule="evenodd" fill="rgb(255,255,255)"/><path d=" M 75.808 71.332 L 75.808 57.598 L 75.808 57.598 Q 75.808 57.421 75.916 57.293 L 75.916 57.293 L 75.916 57.293 Q 76.023 57.165 76.239 57.165 L 76.239 57.165 L 78.188 57.165 L 78.188 57.165 Q 78.355 57.165 78.502 57.283 L 78.502 57.283 L 78.502 57.283 Q 78.649 57.401 78.649 57.598 L 78.649 57.598 L 78.649 71.332 L 78.649 71.332 Q 78.649 71.764 78.188 71.764 L 78.188 71.764 L 76.239 71.764 L 76.239 71.764 Q 75.808 71.764 75.808 71.332 L 75.808 71.332 Z " fill="rgb(255,255,255)"/><path d=" M 80.91 59.318 L 80.91 57.598 L 80.91 57.598 Q 80.91 57.401 81.038 57.283 L 81.038 57.283 L 81.038 57.283 Q 81.165 57.165 81.362 57.165 L 81.362 57.165 L 91.704 57.165 L 91.704 57.165 Q 91.881 57.165 92.023 57.274 L 92.023 57.274 L 92.023 57.274 Q 92.166 57.382 92.186 57.598 L 92.186 57.598 L 92.186 59.318 L 92.186 59.318 Q 92.186 59.515 92.063 59.662 L 92.063 59.662 L 92.063 59.662 Q 91.94 59.81 91.704 59.81 L 91.704 59.81 L 87.968 59.81 L 87.968 71.312 L 87.968 71.312 Q 87.968 71.489 87.845 71.626 L 87.845 71.626 L 87.845 71.626 Q 87.723 71.764 87.506 71.764 L 87.506 71.764 L 85.57 71.764 L 85.57 71.764 Q 85.393 71.764 85.25 71.636 L 85.25 71.636 L 85.25 71.636 Q 85.108 71.508 85.108 71.312 L 85.108 71.312 L 85.108 59.81 L 81.362 59.81 L 81.362 59.81 Q 81.165 59.81 81.038 59.687 L 81.038 59.687 L 81.038 59.687 Q 80.91 59.564 80.91 59.318 L 80.91 59.318 Z " fill="rgb(255,255,255)"/><path d=" M 94.496 71.332 L 94.496 57.598 L 94.496 57.598 Q 94.496 57.421 94.604 57.293 L 94.604 57.293 L 94.604 57.293 Q 94.711 57.165 94.927 57.165 L 94.927 57.165 L 96.877 57.165 L 96.877 57.165 Q 97.043 57.165 97.19 57.283 L 97.19 57.283 L 97.19 57.283 Q 97.337 57.401 97.337 57.598 L 97.337 57.598 L 97.337 71.332 L 97.337 71.332 Q 97.337 71.764 96.877 71.764 L 96.877 71.764 L 94.927 71.764 L 94.927 71.764 Q 94.496 71.764 94.496 71.332 L 94.496 71.332 Z " fill="rgb(255,255,255)"/><path d=" M 99.952 64.48 L 99.952 64.48 L 99.952 64.48 Q 99.952 63.447 100.217 62.484 L 100.217 62.484 L 100.217 62.484 Q 100.483 61.52 100.974 60.685 L 100.974 60.685 L 100.974 60.685 Q 101.466 59.849 102.149 59.161 L 102.149 59.161 L 102.149 59.161 Q 102.832 58.473 103.668 57.986 L 103.668 57.986 L 103.668 57.986 Q 104.504 57.5 105.462 57.229 L 105.462 57.229 L 105.462 57.229 Q 106.421 56.959 107.463 56.959 L 107.463 56.959 L 107.463 56.959 Q 108.495 56.959 109.453 57.229 L 109.453 57.229 L 109.453 57.229 Q 110.412 57.5 111.247 57.986 L 111.247 57.986 L 111.247 57.986 Q 112.083 58.473 112.771 59.161 L 112.771 59.161 L 112.771 59.161 Q 113.459 59.849 113.946 60.685 L 113.946 60.685 L 113.946 60.685 Q 114.433 61.52 114.703 62.484 L 114.703 62.484 L 114.703 62.484 Q 114.973 63.447 114.973 64.489 L 114.973 64.489 L 114.973 64.489 Q 114.973 65.531 114.703 66.485 L 114.703 66.485 L 114.703 66.485 Q 114.433 67.439 113.946 68.274 L 113.946 68.274 L 113.946 68.274 Q 113.459 69.11 112.771 69.793 L 112.771 69.793 L 112.771 69.793 Q 112.083 70.476 111.247 70.963 L 111.247 70.963 L 111.247 70.963 Q 110.412 71.449 109.453 71.715 L 109.453 71.715 L 109.453 71.715 Q 108.495 71.98 107.453 71.98 L 107.453 71.98 L 107.453 71.98 Q 106.411 71.98 105.452 71.715 L 105.452 71.715 L 105.452 71.715 Q 104.494 71.449 103.658 70.958 L 103.658 70.958 L 103.658 70.958 Q 102.823 70.466 102.139 69.783 L 102.139 69.783 L 102.139 69.783 Q 101.456 69.1 100.969 68.269 L 100.969 68.269 L 100.969 68.269 Q 100.483 67.439 100.217 66.48 L 100.217 66.48 L 100.217 66.48 Q 99.952 65.522 99.952 64.48 Z  M 102.793 64.46 L 102.793 64.46 L 102.793 64.46 Q 102.793 65.453 103.152 66.318 L 103.152 66.318 L 103.152 66.318 Q 103.511 67.183 104.135 67.822 L 104.135 67.822 L 104.135 67.822 Q 104.759 68.461 105.61 68.835 L 105.61 68.835 L 105.61 68.835 Q 106.46 69.208 107.453 69.208 L 107.453 69.208 L 107.453 69.208 Q 108.436 69.208 109.286 68.835 L 109.286 68.835 L 109.286 68.835 Q 110.137 68.461 110.766 67.822 L 110.766 67.822 L 110.766 67.822 Q 111.395 67.183 111.754 66.318 L 111.754 66.318 L 111.754 66.318 Q 112.113 65.453 112.113 64.46 L 112.113 64.46 L 112.113 64.46 Q 112.113 63.477 111.754 62.612 L 111.754 62.612 L 111.754 62.612 Q 111.395 61.747 110.766 61.103 L 110.766 61.103 L 110.766 61.103 Q 110.137 60.459 109.286 60.085 L 109.286 60.085 L 109.286 60.085 Q 108.436 59.712 107.453 59.712 L 107.453 59.712 L 107.453 59.712 Q 106.46 59.712 105.61 60.085 L 105.61 60.085 L 105.61 60.085 Q 104.759 60.459 104.135 61.103 L 104.135 61.103 L 104.135 61.103 Q 103.511 61.747 103.152 62.612 L 103.152 62.612 L 103.152 62.612 Q 102.793 63.477 102.793 64.46 Z " fill-rule="evenodd" fill="rgb(255,255,255)"/><path d=" M 117.559 71.341 L 117.559 57.608 L 117.559 57.608 Q 117.559 57.421 117.672 57.293 L 117.672 57.293 L 117.672 57.293 Q 117.785 57.165 117.991 57.165 L 117.991 57.165 L 120.252 57.165 L 120.252 57.165 Q 120.39 57.165 120.513 57.229 L 120.513 57.229 L 120.513 57.229 Q 120.636 57.293 120.734 57.431 L 120.734 57.431 L 120.734 57.431 Q 122.415 59.83 124.067 62.194 L 124.067 62.194 L 124.067 62.194 Q 125.718 64.558 127.399 66.957 L 127.399 66.957 L 127.399 57.539 L 127.399 57.539 Q 127.429 57.362 127.547 57.264 L 127.547 57.264 L 127.547 57.264 Q 127.665 57.165 127.832 57.165 L 127.832 57.165 L 129.729 57.165 L 129.729 57.165 Q 129.926 57.165 130.068 57.283 L 130.068 57.283 L 130.068 57.283 Q 130.211 57.401 130.211 57.598 L 130.211 57.598 L 130.211 71.361 L 130.211 71.361 Q 130.211 71.764 129.749 71.764 L 129.749 71.764 L 127.616 71.764 L 127.616 71.764 Q 127.399 71.764 127.212 71.499 L 127.212 71.499 L 127.212 71.499 Q 125.482 68.992 123.767 66.49 L 123.767 66.49 L 123.767 66.49 Q 122.051 63.988 120.331 61.471 L 120.331 61.471 L 120.331 71.332 L 120.331 71.332 Q 120.331 71.548 120.228 71.656 L 120.228 71.656 L 120.228 71.656 Q 120.125 71.764 119.879 71.764 L 119.879 71.764 L 117.991 71.764 L 117.991 71.764 Q 117.765 71.764 117.662 71.651 L 117.662 71.651 L 117.662 71.651 Q 117.559 71.538 117.559 71.341 L 117.559 71.341 Z " fill="rgb(255,255,255)"/><path d=" M 18.642 34.242 L 18.642 20.508 L 18.642 20.508 Q 18.642 20.331 18.75 20.204 L 18.75 20.204 L 18.75 20.204 Q 18.858 20.076 19.073 20.076 L 19.073 20.076 L 21.023 20.076 L 21.023 20.076 Q 21.189 20.076 21.336 20.194 L 21.336 20.194 L 21.336 20.194 Q 21.483 20.312 21.483 20.508 L 21.483 20.508 L 21.483 34.242 L 21.483 34.242 Q 21.483 34.674 21.023 34.674 L 21.023 34.674 L 19.073 34.674 L 19.073 34.674 Q 18.642 34.674 18.642 34.242 L 18.642 34.242 Z " fill="rgb(255,255,255)"/><path d=" M 24.029 34.242 L 25.504 20.508 L 25.504 20.508 Q 25.524 20.322 25.652 20.199 L 25.652 20.199 L 25.652 20.199 Q 25.779 20.076 25.976 20.076 L 25.976 20.076 L 28.434 20.076 L 28.434 20.076 Q 28.778 20.076 28.886 20.449 L 28.886 20.449 L 32.356 30.123 L 32.356 30.123 Q 33.231 27.685 34.111 25.286 L 34.111 25.286 L 34.111 25.286 Q 34.991 22.887 35.856 20.449 L 35.856 20.449 L 35.856 20.449 Q 35.993 20.076 36.308 20.076 L 36.308 20.076 L 38.776 20.076 L 38.776 20.076 Q 38.972 20.076 39.095 20.204 L 39.095 20.204 L 39.095 20.204 Q 39.218 20.331 39.228 20.508 L 39.228 20.508 L 39.228 20.508 Q 39.591 23.959 39.965 27.38 L 39.965 27.38 L 39.965 27.38 Q 40.339 30.801 40.712 34.242 L 40.712 34.242 L 40.712 34.271 L 40.712 34.271 Q 40.712 34.674 40.28 34.674 L 40.28 34.674 L 38.372 34.674 L 38.372 34.674 Q 37.93 34.674 37.91 34.242 L 37.91 34.242 L 36.908 24.942 L 33.634 33.986 L 33.634 33.986 Q 33.585 34.124 33.477 34.242 L 33.477 34.242 L 33.477 34.242 Q 33.369 34.36 33.251 34.36 L 33.251 34.36 L 31.481 34.36 L 31.481 34.36 Q 31.353 34.36 31.245 34.247 L 31.245 34.247 L 31.245 34.247 Q 31.137 34.134 31.088 33.986 L 31.088 33.986 L 31.088 33.986 Q 30.282 31.715 29.466 29.474 L 29.466 29.474 L 29.466 29.474 Q 28.65 27.233 27.824 24.952 L 27.824 24.952 L 26.821 34.242 L 26.821 34.242 Q 26.821 34.674 26.369 34.674 L 26.369 34.674 L 24.462 34.674 L 24.462 34.674 Q 24.029 34.674 24.029 34.242 L 24.029 34.242 Z " fill="rgb(255,255,255)"/><path d=" M 43.131 34.252 L 43.131 20.538 L 43.131 20.538 Q 43.131 20.076 43.573 20.076 L 43.573 20.076 L 49.157 20.076 L 49.157 20.076 Q 50.15 20.076 50.985 20.464 L 50.985 20.464 L 50.985 20.464 Q 51.821 20.852 52.425 21.501 L 52.425 21.501 L 52.425 21.501 Q 53.03 22.15 53.364 22.991 L 53.364 22.991 L 53.364 22.991 Q 53.699 23.831 53.699 24.745 L 53.699 24.745 L 53.699 24.745 Q 53.699 25.64 53.369 26.471 L 53.369 26.471 L 53.369 26.471 Q 53.039 27.301 52.444 27.945 L 52.444 27.945 L 52.444 27.945 Q 51.848 28.589 51.021 28.978 L 51.021 28.978 L 51.021 28.978 Q 50.194 29.366 49.21 29.366 L 49.21 29.366 L 45.972 29.366 L 45.972 34.252 L 45.972 34.252 Q 45.972 34.674 45.531 34.674 L 45.531 34.674 L 43.562 34.674 L 43.562 34.674 Q 43.131 34.674 43.131 34.252 L 43.131 34.252 Z  M 50.828 24.731 L 50.828 24.731 L 50.828 24.731 Q 50.828 24.327 50.67 23.938 L 50.67 23.938 L 50.67 23.938 Q 50.513 23.548 50.237 23.248 L 50.237 23.248 L 50.237 23.248 Q 49.961 22.947 49.577 22.76 L 49.577 22.76 L 49.577 22.76 Q 49.193 22.573 48.74 22.573 L 48.74 22.573 L 45.972 22.573 L 45.972 26.889 L 48.74 26.889 L 48.74 26.889 Q 49.183 26.889 49.567 26.711 L 49.567 26.711 L 49.567 26.711 Q 49.951 26.534 50.232 26.233 L 50.232 26.233 L 50.232 26.233 Q 50.513 25.933 50.67 25.544 L 50.67 25.544 L 50.67 25.544 Q 50.828 25.154 50.828 24.731 Z " fill-rule="evenodd" fill="rgb(255,255,255)"/><path d=" M 55.114 34.311 L 55.114 34.311 L 55.114 34.311 Q 55.163 34.114 55.227 33.947 L 55.227 33.947 L 55.227 33.947 Q 55.291 33.78 55.34 33.642 L 55.34 33.642 L 60.639 20.449 L 60.639 20.449 Q 60.668 20.341 60.801 20.209 L 60.801 20.209 L 60.801 20.209 Q 60.934 20.076 61.16 20.076 L 61.16 20.076 L 62.743 20.076 L 62.743 20.076 Q 62.979 20.076 63.082 20.194 L 63.082 20.194 L 63.082 20.194 Q 63.185 20.312 63.234 20.4 L 63.234 20.4 L 63.559 21.167 L 68.749 34.153 L 68.749 34.153 Q 68.749 34.183 68.764 34.257 L 68.764 34.257 L 68.764 34.257 Q 68.779 34.33 68.779 34.38 L 68.779 34.38 L 68.779 34.38 Q 68.779 34.674 68.346 34.674 L 68.346 34.674 L 66.41 34.674 L 66.41 34.674 Q 66.193 34.674 66.075 34.586 L 66.075 34.586 L 66.075 34.586 Q 65.957 34.497 65.879 34.311 L 65.879 34.311 L 65.702 33.858 L 65.702 33.858 Q 65.515 33.387 65.328 32.915 L 65.328 32.915 L 65.328 32.915 Q 65.141 32.443 64.965 31.961 L 64.965 31.961 L 58.899 31.961 L 58.899 31.961 Q 58.643 32.649 58.403 33.254 L 58.403 33.254 L 58.403 33.254 Q 58.162 33.858 57.995 34.311 L 57.995 34.311 L 57.995 34.311 Q 57.857 34.674 57.483 34.674 L 57.483 34.674 L 55.517 34.674 L 55.517 34.674 Q 55.33 34.674 55.217 34.606 L 55.217 34.606 L 55.217 34.606 Q 55.104 34.537 55.104 34.399 L 55.104 34.399 L 55.104 34.399 Q 55.104 34.34 55.114 34.311 Z  M 64.031 29.435 L 61.956 23.821 L 61.956 23.821 Q 61.425 25.178 60.9 26.633 L 60.9 26.633 L 60.9 26.633 Q 60.374 28.088 59.843 29.435 L 59.843 29.435 L 64.031 29.435 Z " fill-rule="evenodd" fill="rgb(255,255,255)"/><path d=" M 81.854 21.138 L 81.854 21.138 L 81.854 21.138 Q 81.972 21.206 82.05 21.305 L 82.05 21.305 L 82.05 21.305 Q 82.129 21.403 82.129 21.541 L 82.129 21.541 L 82.129 21.541 Q 82.129 21.649 82.07 21.767 L 82.07 21.767 L 81.116 23.389 L 81.116 23.389 Q 80.949 23.615 80.762 23.615 L 80.762 23.615 L 80.762 23.615 Q 80.703 23.615 80.625 23.59 L 80.625 23.59 L 80.625 23.59 Q 80.546 23.566 80.468 23.517 L 80.468 23.517 L 80.468 23.517 Q 79.848 23.074 79.14 22.828 L 79.14 22.828 L 79.14 22.828 Q 78.433 22.583 77.636 22.583 L 77.636 22.583 L 77.636 22.583 Q 76.634 22.583 75.798 22.961 L 75.798 22.961 L 75.798 22.961 Q 74.962 23.34 74.353 23.988 L 74.353 23.988 L 74.353 23.988 Q 73.743 24.637 73.404 25.512 L 73.404 25.512 L 73.404 25.512 Q 73.065 26.387 73.065 27.39 L 73.065 27.39 L 73.065 27.39 Q 73.065 28.383 73.404 29.253 L 73.404 29.253 L 73.404 29.253 Q 73.743 30.123 74.353 30.772 L 74.353 30.772 L 74.353 30.772 Q 74.962 31.42 75.798 31.794 L 75.798 31.794 L 75.798 31.794 Q 76.634 32.168 77.636 32.168 L 77.636 32.168 L 77.636 32.168 Q 78.433 32.168 79.155 31.922 L 79.155 31.922 L 79.155 31.922 Q 79.878 31.676 80.487 31.234 L 80.487 31.234 L 80.487 31.234 Q 80.566 31.175 80.649 31.155 L 80.649 31.155 L 80.649 31.155 Q 80.733 31.135 80.792 31.126 L 80.792 31.126 L 80.792 31.126 Q 80.959 31.126 81.136 31.342 L 81.136 31.342 L 82.109 32.984 L 82.109 32.984 Q 82.168 33.102 82.168 33.2 L 82.168 33.2 L 82.168 33.2 Q 82.168 33.337 82.085 33.426 L 82.085 33.426 L 82.085 33.426 Q 82.001 33.514 81.893 33.593 L 81.893 33.593 L 81.893 33.593 Q 80.969 34.212 79.902 34.552 L 79.902 34.552 L 79.902 34.552 Q 78.836 34.891 77.656 34.891 L 77.656 34.891 L 77.656 34.891 Q 76.614 34.891 75.655 34.625 L 75.655 34.625 L 75.655 34.625 Q 74.697 34.36 73.861 33.868 L 73.861 33.868 L 73.861 33.868 Q 73.026 33.377 72.342 32.694 L 72.342 32.694 L 72.342 32.694 Q 71.659 32.01 71.168 31.18 L 71.168 31.18 L 71.168 31.18 Q 70.676 30.349 70.411 29.39 L 70.411 29.39 L 70.411 29.39 Q 70.145 28.432 70.145 27.39 L 70.145 27.39 L 70.145 27.39 Q 70.145 26.348 70.411 25.389 L 70.411 25.389 L 70.411 25.389 Q 70.676 24.431 71.168 23.59 L 71.168 23.59 L 71.168 23.59 Q 71.659 22.75 72.342 22.062 L 72.342 22.062 L 72.342 22.062 Q 73.026 21.374 73.861 20.887 L 73.861 20.887 L 73.861 20.887 Q 74.697 20.4 75.655 20.13 L 75.655 20.13 L 75.655 20.13 Q 76.614 19.86 77.656 19.86 L 77.656 19.86 L 77.656 19.86 Q 78.826 19.86 79.878 20.189 L 79.878 20.189 L 79.878 20.189 Q 80.93 20.518 81.854 21.138 Z " fill="rgb(255,255,255)"/><path d=" M 83.859 22.229 L 83.859 20.508 L 83.859 20.508 Q 83.859 20.312 83.987 20.194 L 83.987 20.194 L 83.987 20.194 Q 84.115 20.076 84.311 20.076 L 84.311 20.076 L 94.653 20.076 L 94.653 20.076 Q 94.83 20.076 94.973 20.184 L 94.973 20.184 L 94.973 20.184 Q 95.115 20.292 95.135 20.508 L 95.135 20.508 L 95.135 22.229 L 95.135 22.229 Q 95.135 22.425 95.012 22.573 L 95.012 22.573 L 95.012 22.573 Q 94.889 22.72 94.653 22.72 L 94.653 22.72 L 90.918 22.72 L 90.918 34.222 L 90.918 34.222 Q 90.918 34.399 90.795 34.537 L 90.795 34.537 L 90.795 34.537 Q 90.672 34.674 90.455 34.674 L 90.455 34.674 L 88.519 34.674 L 88.519 34.674 Q 88.342 34.674 88.199 34.547 L 88.199 34.547 L 88.199 34.547 Q 88.057 34.419 88.057 34.222 L 88.057 34.222 L 88.057 22.72 L 84.311 22.72 L 84.311 22.72 Q 84.115 22.72 83.987 22.597 L 83.987 22.597 L 83.987 22.597 Q 83.859 22.475 83.859 22.229 L 83.859 22.229 Z " fill="rgb(255,255,255)"/><path d=" M 125.659 45.526 L 125.659 45.526 L 125.659 45.526 Q 125.522 46.175 125.182 46.711 L 125.182 46.711 L 125.182 46.711 Q 124.843 47.246 124.371 47.63 L 124.371 47.63 L 124.371 47.63 Q 123.9 48.013 123.315 48.224 L 123.315 48.224 L 123.315 48.224 Q 122.73 48.436 122.1 48.436 L 122.1 48.436 L 122.1 48.436 Q 121.933 48.436 121.756 48.411 L 121.756 48.411 L 121.756 48.411 Q 121.579 48.387 121.442 48.357 L 121.442 48.357 L 120.636 48.18 L 120.636 48.18 Q 120.508 49.37 120.021 50.161 L 120.021 50.161 L 120.021 50.161 Q 119.535 50.952 118.817 51.424 L 118.817 51.424 L 118.817 51.424 Q 118.099 51.896 117.215 52.093 L 117.215 52.093 L 117.215 52.093 Q 116.33 52.289 115.406 52.289 L 115.406 52.289 L 115.406 52.289 Q 114.364 52.289 113.43 51.945 L 113.43 51.945 L 113.43 51.945 Q 112.496 51.601 111.793 50.992 L 111.793 50.992 L 111.793 50.992 Q 111.09 50.382 110.677 49.532 L 110.677 49.532 L 110.677 49.532 Q 110.264 48.682 110.264 47.669 L 110.264 47.669 L 110.264 47.669 Q 110.264 46.971 110.417 46.396 L 110.417 46.396 L 110.417 46.396 Q 110.569 45.821 110.844 45.354 L 110.844 45.354 L 110.844 45.354 Q 111.12 44.887 111.503 44.513 L 111.503 44.513 L 111.503 44.513 Q 111.886 44.14 112.348 43.845 L 112.348 43.845 L 112.348 43.845 Q 111.827 43.363 111.542 42.724 L 111.542 42.724 L 111.542 42.724 Q 111.257 42.085 111.257 41.25 L 111.257 41.25 L 111.257 41.25 Q 111.257 40.424 111.591 39.716 L 111.591 39.716 L 111.591 39.716 Q 111.926 39.008 112.486 38.492 L 112.486 38.492 L 112.486 38.492 Q 113.046 37.976 113.784 37.681 L 113.784 37.681 L 113.784 37.681 Q 114.521 37.386 115.337 37.386 L 115.337 37.386 L 115.337 37.386 Q 116.143 37.386 116.875 37.612 L 116.875 37.612 L 116.875 37.612 Q 117.608 37.838 118.168 38.32 L 118.168 38.32 L 118.168 38.32 Q 118.729 38.802 119.058 39.539 L 119.058 39.539 L 119.058 39.539 Q 119.387 40.276 119.387 41.289 L 119.387 41.289 L 119.387 41.289 Q 119.387 41.564 119.24 41.697 L 119.24 41.697 L 119.24 41.697 Q 119.092 41.83 118.856 41.83 L 118.856 41.83 L 118.178 41.83 L 118.178 41.83 Q 118.09 41.83 118.001 41.835 L 118.001 41.835 L 118.001 41.835 Q 117.913 41.839 117.824 41.839 L 117.824 41.839 L 117.47 41.839 L 117.47 41.839 Q 117.224 41.839 117.082 41.712 L 117.082 41.712 L 117.082 41.712 Q 116.939 41.584 116.939 41.338 L 116.939 41.338 L 116.939 41.338 Q 116.939 40.67 116.576 40.267 L 116.576 40.267 L 116.576 40.267 Q 116.212 39.863 115.445 39.863 L 115.445 39.863 L 115.445 39.863 Q 115.013 39.863 114.718 40.006 L 114.718 40.006 L 114.718 40.006 Q 114.423 40.149 114.236 40.37 L 114.236 40.37 L 114.236 40.37 Q 114.049 40.591 113.971 40.861 L 113.971 40.861 L 113.971 40.861 Q 113.892 41.132 113.892 41.397 L 113.892 41.397 L 113.892 41.397 Q 113.892 41.554 113.971 41.805 L 113.971 41.805 L 113.971 41.805 Q 114.049 42.056 114.226 42.301 L 114.226 42.301 L 114.226 42.301 Q 114.403 42.547 114.683 42.749 L 114.683 42.749 L 114.683 42.749 Q 114.963 42.95 115.366 43.009 L 115.366 43.009 L 115.366 43.009 Q 115.829 43.078 115.829 43.481 L 115.829 43.481 L 115.829 43.52 L 115.829 43.52 Q 115.829 43.53 115.824 43.55 L 115.824 43.55 L 115.824 43.55 Q 115.819 43.57 115.819 43.599 L 115.819 43.599 L 115.563 44.857 L 115.563 44.857 Q 115.534 45.103 115.401 45.202 L 115.401 45.202 L 115.401 45.202 Q 115.268 45.3 115.072 45.3 L 115.072 45.3 L 115.072 45.3 Q 114.531 45.3 114.147 45.457 L 114.147 45.457 L 114.147 45.457 Q 113.764 45.614 113.518 45.895 L 113.518 45.895 L 113.518 45.895 Q 113.273 46.175 113.159 46.553 L 113.159 46.553 L 113.159 46.553 Q 113.046 46.932 113.046 47.374 L 113.046 47.374 L 113.046 47.374 Q 113.046 47.816 113.209 48.239 L 113.209 48.239 L 113.209 48.239 Q 113.371 48.662 113.69 48.986 L 113.69 48.986 L 113.69 48.986 Q 114.01 49.311 114.467 49.507 L 114.467 49.507 L 114.467 49.507 Q 114.924 49.704 115.514 49.704 L 115.514 49.704 L 115.514 49.704 Q 115.966 49.704 116.394 49.571 L 116.394 49.571 L 116.394 49.571 Q 116.821 49.439 117.161 49.173 L 117.161 49.173 L 117.161 49.173 Q 117.5 48.908 117.716 48.514 L 117.716 48.514 L 117.716 48.514 Q 117.932 48.121 117.972 47.6 L 117.972 47.6 L 116.89 47.325 L 116.89 47.325 Q 116.694 47.276 116.581 47.138 L 116.581 47.138 L 116.581 47.138 Q 116.468 47.001 116.468 46.824 L 116.468 46.824 L 116.468 46.824 Q 116.468 46.597 116.546 46.347 L 116.546 46.347 L 116.546 46.347 Q 116.625 46.096 116.664 45.86 L 116.664 45.86 L 116.792 45.3 L 116.792 45.3 Q 116.841 45.103 116.969 44.975 L 116.969 44.975 L 116.969 44.975 Q 117.097 44.848 117.293 44.848 L 117.293 44.848 L 117.293 44.848 Q 117.323 44.848 117.372 44.853 L 117.372 44.853 L 117.372 44.853 Q 117.421 44.857 117.441 44.867 L 117.441 44.867 L 117.431 44.867 L 121.815 45.831 L 121.815 45.831 Q 121.933 45.86 122.042 45.86 L 122.042 45.86 L 122.042 45.86 Q 122.454 45.86 122.769 45.595 L 122.769 45.595 L 122.769 45.595 Q 123.084 45.329 123.211 44.956 L 123.211 44.956 L 123.211 44.956 Q 123.231 44.769 123.374 44.651 L 123.374 44.651 L 123.374 44.651 Q 123.516 44.533 123.703 44.533 L 123.703 44.533 L 123.703 44.533 Q 123.89 44.533 124.067 44.592 L 124.067 44.592 L 124.067 44.592 Q 124.244 44.651 124.391 44.651 L 124.391 44.651 L 125.227 44.838 L 125.227 44.838 Q 125.423 44.857 125.551 45.029 L 125.551 45.029 L 125.551 45.029 Q 125.679 45.202 125.679 45.388 L 125.679 45.388 L 125.679 45.388 Q 125.679 45.437 125.674 45.467 L 125.674 45.467 L 125.674 45.467 Q 125.669 45.496 125.659 45.526 Z " fill="rgb(255,255,255)"/><path d=" M 18.662 51.69 L 18.662 37.956 L 18.662 37.956 Q 18.662 37.74 18.775 37.627 L 18.775 37.627 L 18.775 37.627 Q 18.888 37.514 19.075 37.504 L 19.075 37.504 L 28.414 37.504 L 28.414 37.504 Q 28.866 37.504 28.866 37.976 L 28.866 37.976 L 28.866 39.687 L 28.866 39.687 Q 28.866 39.863 28.748 40.006 L 28.748 40.006 L 28.748 40.006 Q 28.63 40.149 28.414 40.149 L 28.414 40.149 L 21.523 40.149 L 21.523 44.081 L 21.523 44.081 Q 21.778 44.081 22.201 44.081 L 22.201 44.081 L 22.201 44.081 Q 22.624 44.081 23.125 44.081 L 23.125 44.081 L 23.125 44.081 Q 23.626 44.081 24.167 44.086 L 24.167 44.086 L 24.167 44.086 Q 24.708 44.091 25.209 44.091 L 25.209 44.091 L 25.209 44.091 Q 25.711 44.091 26.128 44.091 L 26.128 44.091 L 26.128 44.091 Q 26.546 44.091 26.812 44.091 L 26.812 44.091 L 26.812 44.091 Q 26.989 44.091 27.116 44.194 L 27.116 44.194 L 27.116 44.194 Q 27.244 44.297 27.244 44.533 L 27.244 44.533 L 27.244 46.204 L 27.244 46.204 Q 27.244 46.381 27.131 46.524 L 27.131 46.524 L 27.131 46.524 Q 27.018 46.666 26.821 46.666 L 26.821 46.666 L 21.523 46.666 L 21.523 51.69 L 21.523 51.69 Q 21.523 52.103 21.061 52.103 L 21.061 52.103 L 19.055 52.103 L 19.055 52.103 Q 18.662 52.083 18.662 51.69 L 18.662 51.69 Z " fill="rgb(255,255,255)"/><path d=" M 31.176 51.67 L 31.176 37.937 L 31.176 37.937 Q 31.176 37.76 31.284 37.632 L 31.284 37.632 L 31.284 37.632 Q 31.392 37.504 31.607 37.504 L 31.607 37.504 L 33.557 37.504 L 33.557 37.504 Q 33.724 37.504 33.871 37.622 L 33.871 37.622 L 33.871 37.622 Q 34.017 37.74 34.017 37.937 L 34.017 37.937 L 34.017 51.67 L 34.017 51.67 Q 34.017 52.103 33.557 52.103 L 33.557 52.103 L 31.607 52.103 L 31.607 52.103 Q 31.176 52.103 31.176 51.67 L 31.176 51.67 Z " fill="rgb(255,255,255)"/><path d=" M 36.279 39.657 L 36.279 37.937 L 36.279 37.937 Q 36.279 37.74 36.406 37.622 L 36.406 37.622 L 36.406 37.622 Q 36.534 37.504 36.731 37.504 L 36.731 37.504 L 47.073 37.504 L 47.073 37.504 Q 47.25 37.504 47.392 37.612 L 47.392 37.612 L 47.392 37.612 Q 47.535 37.72 47.554 37.937 L 47.554 37.937 L 47.554 39.657 L 47.554 39.657 Q 47.554 39.854 47.431 40.001 L 47.431 40.001 L 47.431 40.001 Q 47.309 40.149 47.073 40.149 L 47.073 40.149 L 43.337 40.149 L 43.337 51.65 L 43.337 51.65 Q 43.337 51.827 43.214 51.965 L 43.214 51.965 L 43.214 51.965 Q 43.091 52.103 42.875 52.103 L 42.875 52.103 L 40.938 52.103 L 40.938 52.103 Q 40.761 52.103 40.619 51.975 L 40.619 51.975 L 40.619 51.975 Q 40.476 51.847 40.476 51.65 L 40.476 51.65 L 40.476 40.149 L 36.731 40.149 L 36.731 40.149 Q 36.534 40.149 36.406 40.026 L 36.406 40.026 L 36.406 40.026 Q 36.279 39.903 36.279 39.657 L 36.279 39.657 Z " fill="rgb(255,255,255)"/><path d=" M 49.865 51.68 L 49.865 37.946 L 49.865 37.946 Q 49.865 37.76 49.978 37.632 L 49.978 37.632 L 49.978 37.632 Q 50.091 37.504 50.297 37.504 L 50.297 37.504 L 52.558 37.504 L 52.558 37.504 Q 52.696 37.504 52.819 37.568 L 52.819 37.568 L 52.819 37.568 Q 52.942 37.632 53.04 37.77 L 53.04 37.77 L 53.04 37.77 Q 54.721 40.168 56.372 42.532 L 56.372 42.532 L 56.372 42.532 Q 58.024 44.897 59.705 47.295 L 59.705 47.295 L 59.705 37.878 L 59.705 37.878 Q 59.735 37.701 59.853 37.602 L 59.853 37.602 L 59.853 37.602 Q 59.971 37.504 60.138 37.504 L 60.138 37.504 L 62.035 37.504 L 62.035 37.504 Q 62.232 37.504 62.374 37.622 L 62.374 37.622 L 62.374 37.622 Q 62.517 37.74 62.517 37.937 L 62.517 37.937 L 62.517 51.7 L 62.517 51.7 Q 62.517 52.103 62.055 52.103 L 62.055 52.103 L 59.921 52.103 L 59.921 52.103 Q 59.705 52.103 59.518 51.837 L 59.518 51.837 L 59.518 51.837 Q 57.788 49.33 56.073 46.829 L 56.073 46.829 L 56.073 46.829 Q 54.357 44.327 52.637 41.81 L 52.637 41.81 L 52.637 51.67 L 52.637 51.67 Q 52.637 51.886 52.534 51.995 L 52.534 51.995 L 52.534 51.995 Q 52.43 52.103 52.185 52.103 L 52.185 52.103 L 50.297 52.103 L 50.297 52.103 Q 50.071 52.103 49.968 51.99 L 49.968 51.99 L 49.968 51.99 Q 49.865 51.877 49.865 51.68 L 49.865 51.68 Z " fill="rgb(255,255,255)"/><path d=" M 65.692 51.69 L 65.692 37.976 L 65.692 37.976 Q 65.692 37.504 66.125 37.504 L 66.125 37.504 L 75.601 37.504 L 75.601 37.504 Q 75.857 37.504 75.965 37.647 L 75.965 37.647 L 75.965 37.647 Q 76.073 37.79 76.073 38.007 L 76.073 38.007 L 76.073 39.744 L 76.073 39.744 Q 76.073 39.921 75.95 40.06 L 75.95 40.06 L 75.95 40.06 Q 75.827 40.198 75.582 40.198 L 75.582 40.198 L 68.592 40.198 L 68.592 43.176 L 73.979 43.176 L 73.979 43.176 Q 74.176 43.157 74.294 43.26 L 74.294 43.26 L 74.294 43.26 Q 74.412 43.363 74.412 43.609 L 74.412 43.609 L 74.412 45.388 L 74.412 45.388 Q 74.412 45.565 74.313 45.703 L 74.313 45.703 L 74.313 45.703 Q 74.215 45.841 73.999 45.841 L 73.999 45.841 L 68.592 45.841 L 68.592 49.409 L 75.837 49.409 L 75.837 49.409 Q 76.113 49.409 76.201 49.527 L 76.201 49.527 L 76.201 49.527 Q 76.289 49.646 76.289 49.893 L 76.289 49.893 L 76.289 51.688 L 76.289 51.688 Q 76.289 52.103 75.857 52.103 L 75.857 52.103 L 66.125 52.103 L 66.125 52.103 Q 65.948 52.103 65.82 52.004 L 65.82 52.004 L 65.82 52.004 Q 65.692 51.906 65.692 51.69 L 65.692 51.69 Z " fill="rgb(255,255,255)"/><path d=" M 86.946 41.397 L 86.946 41.397 L 86.946 41.397 Q 86.818 41.397 86.71 41.333 L 86.71 41.333 L 86.71 41.333 Q 86.602 41.269 86.464 41.161 L 86.464 41.161 L 86.445 41.151 L 86.445 41.151 Q 86.258 40.965 85.963 40.738 L 85.963 40.738 L 85.963 40.738 Q 85.668 40.512 85.304 40.316 L 85.304 40.316 L 85.304 40.316 Q 84.94 40.119 84.523 39.981 L 84.523 39.981 L 84.523 39.981 Q 84.105 39.844 83.672 39.844 L 83.672 39.844 L 83.672 39.844 Q 83.122 39.844 82.699 39.967 L 82.699 39.967 L 82.699 39.967 Q 82.276 40.09 81.991 40.301 L 81.991 40.301 L 81.991 40.301 Q 81.706 40.512 81.559 40.797 L 81.559 40.797 L 81.559 40.797 Q 81.411 41.082 81.411 41.407 L 81.411 41.407 L 81.411 41.407 Q 81.411 41.761 81.632 42.026 L 81.632 42.026 L 81.632 42.026 Q 81.854 42.292 82.232 42.498 L 82.232 42.498 L 82.232 42.498 Q 82.611 42.705 83.102 42.877 L 83.102 42.877 L 83.102 42.877 Q 83.594 43.049 84.134 43.216 L 84.134 43.216 L 84.134 43.216 Q 84.754 43.403 85.363 43.619 L 85.363 43.619 L 85.363 43.619 Q 85.973 43.835 86.528 44.105 L 86.528 44.105 L 86.528 44.105 Q 87.084 44.376 87.565 44.705 L 87.565 44.705 L 87.565 44.705 Q 88.047 45.034 88.396 45.462 L 88.396 45.462 L 88.396 45.462 Q 88.745 45.89 88.946 46.416 L 88.946 46.416 L 88.946 46.416 Q 89.148 46.942 89.148 47.6 L 89.148 47.6 L 89.148 47.6 Q 89.148 48.672 88.715 49.537 L 88.715 49.537 L 88.715 49.537 Q 88.283 50.402 87.521 51.016 L 87.521 51.016 L 87.521 51.016 Q 86.759 51.631 85.732 51.96 L 85.732 51.96 L 85.732 51.96 Q 84.705 52.289 83.525 52.289 L 83.525 52.289 L 83.525 52.289 Q 82.768 52.289 82.021 52.113 L 82.021 52.113 L 82.021 52.113 Q 81.274 51.936 80.585 51.611 L 80.585 51.611 L 80.585 51.611 Q 79.897 51.287 79.283 50.83 L 79.283 50.83 L 79.283 50.83 Q 78.668 50.372 78.187 49.802 L 78.187 49.802 L 78.187 49.812 L 78.167 49.773 L 78.167 49.773 Q 77.951 49.527 77.951 49.321 L 77.951 49.321 L 77.951 49.321 Q 77.951 49.212 78.01 49.114 L 78.01 49.114 L 78.01 49.114 Q 78.069 49.016 78.187 48.898 L 78.187 48.898 L 78.511 48.573 L 78.511 48.573 Q 78.659 48.446 78.826 48.288 L 78.826 48.288 L 78.826 48.288 Q 78.993 48.131 79.16 48.003 L 79.16 48.003 L 79.16 48.003 Q 79.327 47.875 79.47 47.787 L 79.47 47.787 L 79.47 47.787 Q 79.612 47.699 79.701 47.699 L 79.701 47.699 L 79.701 47.699 Q 79.838 47.699 79.956 47.787 L 79.956 47.787 L 79.956 47.787 Q 80.074 47.875 80.153 47.954 L 80.153 47.954 L 80.192 47.993 L 80.182 47.993 L 80.182 47.993 Q 80.526 48.318 80.954 48.613 L 80.954 48.613 L 80.954 48.613 Q 81.382 48.908 81.834 49.139 L 81.834 49.139 L 81.834 49.139 Q 82.286 49.37 82.733 49.502 L 82.733 49.502 L 82.733 49.502 Q 83.181 49.635 83.574 49.635 L 83.574 49.635 L 83.574 49.635 Q 84.115 49.635 84.587 49.498 L 84.587 49.498 L 84.587 49.498 Q 85.058 49.36 85.403 49.109 L 85.403 49.109 L 85.403 49.109 Q 85.747 48.859 85.943 48.505 L 85.943 48.505 L 85.943 48.505 Q 86.14 48.151 86.14 47.718 L 86.14 47.718 L 86.14 47.718 Q 86.14 47.286 85.884 46.976 L 85.884 46.976 L 85.884 46.976 Q 85.629 46.666 85.216 46.435 L 85.216 46.435 L 85.216 46.435 Q 84.803 46.204 84.287 46.037 L 84.287 46.037 L 84.287 46.037 Q 83.771 45.87 83.25 45.723 L 83.25 45.723 L 83.25 45.723 Q 82.05 45.359 81.151 44.936 L 81.151 44.936 L 81.151 44.936 Q 80.251 44.513 79.652 43.987 L 79.652 43.987 L 79.652 43.987 Q 79.052 43.461 78.752 42.808 L 78.752 42.808 L 78.752 42.808 Q 78.452 42.154 78.452 41.338 L 78.452 41.338 L 78.452 41.338 Q 78.452 40.424 78.821 39.672 L 78.821 39.672 L 78.821 39.672 Q 79.19 38.92 79.868 38.384 L 79.868 38.384 L 79.868 38.384 Q 80.546 37.848 81.5 37.548 L 81.5 37.548 L 81.5 37.548 Q 82.453 37.248 83.633 37.248 L 83.633 37.248 L 83.633 37.248 Q 84.528 37.248 85.452 37.529 L 85.452 37.529 L 85.452 37.529 Q 86.376 37.809 87.162 38.3 L 87.162 38.3 L 87.162 38.3 Q 87.398 38.448 87.644 38.635 L 87.644 38.635 L 87.644 38.635 Q 87.89 38.821 88.096 39.013 L 88.096 39.013 L 88.096 39.013 Q 88.303 39.205 88.435 39.387 L 88.435 39.387 L 88.435 39.387 Q 88.568 39.569 88.568 39.696 L 88.568 39.696 L 88.568 39.696 Q 88.568 39.814 88.509 39.937 L 88.509 39.937 L 88.509 39.937 Q 88.45 40.06 88.362 40.158 L 88.362 40.158 L 88.067 40.473 L 88.067 40.463 L 88.067 40.463 Q 87.919 40.62 87.762 40.788 L 87.762 40.788 L 87.762 40.788 Q 87.605 40.955 87.447 41.087 L 87.447 41.087 L 87.447 41.087 Q 87.29 41.22 87.162 41.309 L 87.162 41.309 L 87.162 41.309 Q 87.034 41.397 86.946 41.397 Z " fill="rgb(255,255,255)"/><path d=" M 99.932 41.397 L 99.932 41.397 L 99.932 41.397 Q 99.804 41.397 99.696 41.333 L 99.696 41.333 L 99.696 41.333 Q 99.588 41.269 99.451 41.161 L 99.451 41.161 L 99.431 41.151 L 99.431 41.151 Q 99.244 40.965 98.949 40.738 L 98.949 40.738 L 98.949 40.738 Q 98.654 40.512 98.291 40.316 L 98.291 40.316 L 98.291 40.316 Q 97.927 40.119 97.509 39.981 L 97.509 39.981 L 97.509 39.981 Q 97.091 39.844 96.659 39.844 L 96.659 39.844 L 96.659 39.844 Q 96.108 39.844 95.685 39.967 L 95.685 39.967 L 95.685 39.967 Q 95.263 40.09 94.978 40.301 L 94.978 40.301 L 94.978 40.301 Q 94.693 40.512 94.545 40.797 L 94.545 40.797 L 94.545 40.797 Q 94.398 41.082 94.398 41.407 L 94.398 41.407 L 94.398 41.407 Q 94.398 41.761 94.619 42.026 L 94.619 42.026 L 94.619 42.026 Q 94.84 42.292 95.218 42.498 L 95.218 42.498 L 95.218 42.498 Q 95.597 42.705 96.088 42.877 L 96.088 42.877 L 96.088 42.877 Q 96.58 43.049 97.121 43.216 L 97.121 43.216 L 97.121 43.216 Q 97.74 43.403 98.35 43.619 L 98.35 43.619 L 98.35 43.619 Q 98.959 43.835 99.514 44.105 L 99.514 44.105 L 99.514 44.105 Q 100.07 44.376 100.552 44.705 L 100.552 44.705 L 100.552 44.705 Q 101.033 45.034 101.382 45.462 L 101.382 45.462 L 101.382 45.462 Q 101.731 45.89 101.933 46.416 L 101.933 46.416 L 101.933 46.416 Q 102.134 46.942 102.134 47.6 L 102.134 47.6 L 102.134 47.6 Q 102.134 48.672 101.702 49.537 L 101.702 49.537 L 101.702 49.537 Q 101.269 50.402 100.507 51.016 L 100.507 51.016 L 100.507 51.016 Q 99.745 51.631 98.718 51.96 L 98.718 51.96 L 98.718 51.96 Q 97.691 52.289 96.511 52.289 L 96.511 52.289 L 96.511 52.289 Q 95.754 52.289 95.007 52.113 L 95.007 52.113 L 95.007 52.113 Q 94.26 51.936 93.572 51.611 L 93.572 51.611 L 93.572 51.611 Q 92.884 51.287 92.269 50.83 L 92.269 50.83 L 92.269 50.83 Q 91.655 50.372 91.173 49.802 L 91.173 49.802 L 91.173 49.812 L 91.153 49.773 L 91.153 49.773 Q 90.937 49.527 90.937 49.321 L 90.937 49.321 L 90.937 49.321 Q 90.937 49.212 90.996 49.114 L 90.996 49.114 L 90.996 49.114 Q 91.055 49.016 91.173 48.898 L 91.173 48.898 L 91.498 48.573 L 91.498 48.573 Q 91.645 48.446 91.812 48.288 L 91.812 48.288 L 91.812 48.288 Q 91.979 48.131 92.146 48.003 L 92.146 48.003 L 92.146 48.003 Q 92.313 47.875 92.456 47.787 L 92.456 47.787 L 92.456 47.787 Q 92.599 47.699 92.687 47.699 L 92.687 47.699 L 92.687 47.699 Q 92.825 47.699 92.943 47.787 L 92.943 47.787 L 92.943 47.787 Q 93.061 47.875 93.139 47.954 L 93.139 47.954 L 93.179 47.993 L 93.169 47.993 L 93.169 47.993 Q 93.513 48.318 93.94 48.613 L 93.94 48.613 L 93.94 48.613 Q 94.368 48.908 94.82 49.139 L 94.82 49.139 L 94.82 49.139 Q 95.273 49.37 95.72 49.502 L 95.72 49.502 L 95.72 49.502 Q 96.167 49.635 96.56 49.635 L 96.56 49.635 L 96.56 49.635 Q 97.101 49.635 97.573 49.498 L 97.573 49.498 L 97.573 49.498 Q 98.045 49.36 98.389 49.109 L 98.389 49.109 L 98.389 49.109 Q 98.733 48.859 98.93 48.505 L 98.93 48.505 L 98.93 48.505 Q 99.126 48.151 99.126 47.718 L 99.126 47.718 L 99.126 47.718 Q 99.126 47.286 98.871 46.976 L 98.871 46.976 L 98.871 46.976 Q 98.615 46.666 98.202 46.435 L 98.202 46.435 L 98.202 46.435 Q 97.789 46.204 97.273 46.037 L 97.273 46.037 L 97.273 46.037 Q 96.757 45.87 96.236 45.723 L 96.236 45.723 L 96.236 45.723 Q 95.037 45.359 94.137 44.936 L 94.137 44.936 L 94.137 44.936 Q 93.238 44.513 92.638 43.987 L 92.638 43.987 L 92.638 43.987 Q 92.038 43.461 91.738 42.808 L 91.738 42.808 L 91.738 42.808 Q 91.439 42.154 91.439 41.338 L 91.439 41.338 L 91.439 41.338 Q 91.439 40.424 91.807 39.672 L 91.807 39.672 L 91.807 39.672 Q 92.176 38.92 92.854 38.384 L 92.854 38.384 L 92.854 38.384 Q 93.533 37.848 94.486 37.548 L 94.486 37.548 L 94.486 37.548 Q 95.44 37.248 96.619 37.248 L 96.619 37.248 L 96.619 37.248 Q 97.514 37.248 98.438 37.529 L 98.438 37.529 L 98.438 37.529 Q 99.362 37.809 100.149 38.3 L 100.149 38.3 L 100.149 38.3 Q 100.384 38.448 100.63 38.635 L 100.63 38.635 L 100.63 38.635 Q 100.876 38.821 101.082 39.013 L 101.082 39.013 L 101.082 39.013 Q 101.289 39.205 101.422 39.387 L 101.422 39.387 L 101.422 39.387 Q 101.554 39.569 101.554 39.696 L 101.554 39.696 L 101.554 39.696 Q 101.554 39.814 101.495 39.937 L 101.495 39.937 L 101.495 39.937 Q 101.436 40.06 101.348 40.158 L 101.348 40.158 L 101.053 40.473 L 101.053 40.463 L 101.053 40.463 Q 100.906 40.62 100.748 40.788 L 100.748 40.788 L 100.748 40.788 Q 100.591 40.955 100.434 41.087 L 100.434 41.087 L 100.434 41.087 Q 100.276 41.22 100.149 41.309 L 100.149 41.309 L 100.149 41.309 Q 100.021 41.397 99.932 41.397 Z " fill="rgb(255,255,255)"/></g></svg>